<?xml version="1.0" encoding="UTF-8" standalone="no"?>
<!-- Created with Inkscape (http://www.inkscape.org/) -->

<svg
   version="1.1"
   id="svg2"
   xml:space="preserve"
   width="816"
   height="1056"
   viewBox="0 0 816 1056"
   sodipodi:docname="Schmoli Logo.ai"
   xmlns:inkscape="http://www.inkscape.org/namespaces/inkscape"
   xmlns:sodipodi="http://sodipodi.sourceforge.net/DTD/sodipodi-0.dtd"
   xmlns="http://www.w3.org/2000/svg"
   xmlns:svg="http://www.w3.org/2000/svg"><defs
     id="defs6"><clipPath
       clipPathUnits="userSpaceOnUse"
       id="clipPath16"><path
         d="M 0,792 H 612 V 0 H 0 Z"
         id="path14" /></clipPath><clipPath
       clipPathUnits="userSpaceOnUse"
       id="clipPath40"><path
         d="M 0,792 H 612 V 0 H 0 Z"
         id="path38" /></clipPath></defs><sodipodi:namedview
     id="namedview4"
     pagecolor="#ffffff"
     bordercolor="#666666"
     borderopacity="1.0"
     inkscape:pageshadow="2"
     inkscape:pageopacity="0.0"
     inkscape:pagecheckerboard="0" /><g
     id="g8"
     inkscape:groupmode="layer"
     inkscape:label="Schmoli Logo"
     transform="matrix(1.3333333,0,0,-1.3333333,0,1056)"><g
       id="g10"><g
         id="g12"
         clip-path="url(#clipPath16)"><g
           id="g18"
           transform="translate(351.2012,420.5151)"><path
             d="M 0,0 C 7.529,13.853 24.79,19.197 38.861,11.921 53.111,4.552 58.69,-12.977 51.32,-27.227 46.395,-36.755 36.924,-42.408 26.932,-42.903"
             style="fill:none;stroke:#ef4136;stroke-width:6;stroke-linecap:butt;stroke-linejoin:miter;stroke-miterlimit:10;stroke-dasharray:none;stroke-opacity:1"
             id="path20" /></g><g
           id="g22"
           transform="translate(231.0273,392.2461)"><path
             d="M 0,0 C 14.461,0 14.461,-15.44 28.923,-15.44 43.385,-15.44 43.385,0 57.848,0 c 14.461,0 14.461,-15.44 28.923,-15.44 14.463,0 14.463,15.44 28.927,15.44 14.464,0 14.464,-15.44 28.928,-15.44"
             style="fill:none;stroke:#1b75bc;stroke-width:6;stroke-linecap:butt;stroke-linejoin:miter;stroke-miterlimit:10;stroke-dasharray:none;stroke-opacity:1"
             id="path24" /></g><g
           id="g26"
           transform="translate(417.6104,313.6592)"><path
             d="m 0,0 h -36.658 v 8 h 22.949 l -40.682,71.999 -24.92,43.162 -54.493,-94.388 h -85.707 l 83.448,144.539 27.67,-49.325 -5.124,-7.262 -22.646,40.413 -69.492,-120.365 h 67.232 l 59.112,102.388 31.867,-55.194 z"
             style="fill:#414142;fill-opacity:1;fill-rule:nonzero;stroke:none"
             id="path28" /></g></g></g><text
       transform="matrix(1,0,0,-1,196.3604,314.3262)"
       style="font-variant:normal;font-weight:normal;font-stretch:normal;font-size:25.3385px;font-family:Montserrat;-inkscape-font-specification:Montserrat-Regular;writing-mode:lr-tb;fill:#1b75bc;fill-opacity:1;fill-rule:nonzero;stroke:none"
       id="text32"><tspan
         x="0 24.882406 52.450695 81.057861 114.88476 145.08826 168.349"
         y="0"
         sodipodi:role="line"
         id="tspan30">SCHMOLI</tspan></text><g
       id="g34"><g
         id="g36"
         clip-path="url(#clipPath40)"><g
           id="g42"
           transform="translate(206.8252,329.251)"><path
             d="M 0,0 C 0.895,-0.305 1.604,-0.693 2.128,-1.166 L 3.725,1.089 C 2.914,1.765 1.951,2.288 0.836,2.66 -0.279,3.031 -1.402,3.218 -2.534,3.218 -4.291,3.218 -5.765,2.774 -6.956,1.888 -8.146,1 -8.742,-0.263 -8.742,-1.9 c 0,-1.639 0.524,-2.856 1.571,-3.65 0.524,-0.422 1.123,-0.764 1.799,-1.026 0.676,-0.262 1.664,-0.549 2.965,-0.861 1.301,-0.313 2.217,-0.659 2.749,-1.04 0.532,-0.379 0.798,-0.912 0.798,-1.595 0,-0.685 -0.283,-1.234 -0.848,-1.648 -0.567,-0.414 -1.331,-0.62 -2.294,-0.62 -1.926,0 -3.784,0.777 -5.574,2.331 l -1.875,-2.256 c 2.145,-1.909 4.602,-2.863 7.373,-2.863 1.892,0 3.421,0.482 4.586,1.444 1.166,0.963 1.749,2.218 1.749,3.763 0,1.546 -0.461,2.716 -1.381,3.51 -0.921,0.794 -2.289,1.41 -4.105,1.849 -1.816,0.44 -3.002,0.849 -3.56,1.23 -0.558,0.38 -0.836,0.929 -0.836,1.646 0,0.718 0.278,1.254 0.836,1.61 0.558,0.354 1.271,0.532 2.141,0.532 C -1.778,0.456 -0.896,0.304 0,0 Z"
             style="fill:none;stroke:#1b75bc;stroke-width:2;stroke-linecap:butt;stroke-linejoin:miter;stroke-miterlimit:10;stroke-dasharray:none;stroke-opacity:1"
             id="path44" /></g><g
           id="g46"
           transform="translate(227.4888,318.8486)"><path
             d="m 0,0 c -1.208,1.208 -1.812,2.712 -1.812,4.511 0,1.799 0.608,3.277 1.825,4.434 1.216,1.157 2.719,1.736 4.51,1.736 1.013,0 1.896,-0.161 2.647,-0.482 C 7.922,9.878 8.72,9.313 9.565,8.502 l 1.9,2.077 C 9.624,12.606 7.331,13.62 4.586,13.62 1.841,13.62 -0.431,12.741 -2.23,10.984 -4.029,9.228 -4.929,7.032 -4.929,4.396 c 0,-2.634 0.883,-4.814 2.648,-6.537 1.765,-1.722 3.987,-2.585 6.664,-2.585 2.678,0 4.954,1.039 6.829,3.118 L 9.287,0.368 C 8.476,-0.393 7.698,-0.945 6.955,-1.292 6.212,-1.639 5.325,-1.812 4.295,-1.812 2.639,-1.812 1.208,-1.207 0,0 Z"
             style="fill:none;stroke:#1b75bc;stroke-width:2;stroke-linecap:butt;stroke-linejoin:miter;stroke-miterlimit:10;stroke-dasharray:none;stroke-opacity:1"
             id="path48" /></g><g
           id="g50"
           transform="translate(254.2583,314.3262)"><path
             d="M 0,0 V 7.247 H 8.792 V 0 h 2.99 V 17.712 H 8.792 V 10.034 H 0 v 7.678 H -2.99 V 0 Z"
             style="fill:none;stroke:#1b75bc;stroke-width:2;stroke-linecap:butt;stroke-linejoin:miter;stroke-miterlimit:10;stroke-dasharray:none;stroke-opacity:1"
             id="path52" /></g><g
           id="g54"
           transform="translate(282.8652,328.1611)"><path
             d="M 0,0 6.157,-12.289 H 7.83 L 14.012,0 v -13.835 h 2.99 V 3.877 H 12.365 L 7.019,-7.247 1.672,3.877 H -2.99 V -13.835 H 0 Z"
             style="fill:none;stroke:#1b75bc;stroke-width:2;stroke-linecap:butt;stroke-linejoin:miter;stroke-miterlimit:10;stroke-dasharray:none;stroke-opacity:1"
             id="path56" /></g><g
           id="g58"
           transform="translate(328.145,323.3086)"><path
             d="m 0,0 c 0,-1.782 -0.604,-3.298 -1.812,-4.548 -1.208,-1.251 -2.69,-1.875 -4.447,-1.875 -1.757,0 -3.239,0.624 -4.447,1.875 -1.208,1.25 -1.811,2.766 -1.811,4.548 0,1.782 0.603,3.298 1.811,4.548 1.208,1.25 2.69,1.876 4.447,1.876 1.757,0 3.239,-0.626 4.447,-1.876 C -0.604,3.298 0,1.782 0,0 Z M 3.066,0 C 3.066,2.61 2.17,4.789 0.38,6.537 -1.411,8.286 -3.624,9.16 -6.259,9.16 -8.894,9.16 -11.107,8.286 -12.897,6.537 -14.688,4.789 -15.583,2.61 -15.583,0 c 0,-2.609 0.895,-4.789 2.686,-6.537 1.79,-1.748 4.003,-2.623 6.638,-2.623 2.635,0 4.848,0.875 6.639,2.623 1.79,1.748 2.686,3.928 2.686,6.537 z"
             style="fill:none;stroke:#1b75bc;stroke-width:2;stroke-linecap:butt;stroke-linejoin:miter;stroke-miterlimit:10;stroke-dasharray:none;stroke-opacity:1"
             id="path60" /></g><g
           id="g62"
           transform="translate(354.978,314.3262)"><path
             d="m 0,0 v 2.838 h -8.083 v 14.874 h -2.99 V 0 Z"
             style="fill:none;stroke:#1b75bc;stroke-width:2;stroke-linecap:butt;stroke-linejoin:miter;stroke-miterlimit:10;stroke-dasharray:none;stroke-opacity:1"
             id="path64" /></g><path
           d="m 367.166,314.326 h 2.99 v 17.712 h -2.99 z"
           style="fill:none;stroke:#1b75bc;stroke-width:2;stroke-linecap:butt;stroke-linejoin:miter;stroke-miterlimit:10;stroke-dasharray:none;stroke-opacity:1"
           id="path66" /></g></g></g></svg>
