<?xml version="1.0" standalone="no"?>
<!DOCTYPE svg PUBLIC "-//W3C//DTD SVG 20010904//EN"
 "http://www.w3.org/TR/2001/REC-SVG-20010904/DTD/svg10.dtd">
<svg version="1.0" xmlns="http://www.w3.org/2000/svg"
 width="328.000000pt" height="400.000000pt" viewBox="0 0 328.000000 400.000000"
 preserveAspectRatio="xMidYMid meet">

<g transform="translate(0.000000,400.000000) scale(0.100000,-0.100000)"
fill="#d32f2f" stroke="none">
<path d="M3100 3893 c-83 -7 -344 -44 -450 -64 -642 -121 -1176 -383 -1363
-667 -79 -120 -98 -211 -68 -327 49 -193 154 -351 510 -764 314 -363 433 -523
507 -680 41 -84 74 -205 74 -265 0 -95 -47 -210 -117 -289 -48 -54 -41 -97 18
-97 58 0 264 192 335 313 66 113 86 180 91 307 7 149 -7 206 -91 375 -60 120
-146 259 -381 615 -176 268 -283 473 -312 601 -29 132 14 248 141 374 203 202
583 363 1085 460 69 14 128 30 133 37 23 37 -4 81 -49 76 -10 -1 -38 -3 -63
-5z"/>
<path d="M1035 3195 c-180 -124 -309 -298 -355 -483 -56 -219 6 -400 278 -817
25 -38 96 -146 157 -240 187 -286 281 -456 325 -588 17 -54 21 -85 18 -145 -5
-102 -39 -172 -130 -267 -197 -208 -555 -366 -1062 -469 -171 -35 -194 -47
-175 -93 10 -28 38 -29 238 -8 319 34 620 102 916 210 141 51 146 53 291 126
160 80 296 174 387 266 121 123 166 207 174 328 5 71 2 90 -24 167 -59 171
-178 342 -489 703 -372 431 -478 581 -552 778 -22 61 -26 88 -27 177 0 98 2
109 32 171 18 36 50 86 73 111 45 51 48 67 22 91 -26 24 -40 21 -97 -18z"/>
</g>
</svg>
